<mxfile host="Electron" agent="Mozilla/5.0 (X11; Linux x86_64) AppleWebKit/537.36 (KHTML, like Gecko) draw.io/26.2.2 Chrome/134.0.6998.178 Electron/35.1.2 Safari/537.36" version="26.2.2">
  <diagram id="C5RBs43oDa-KdzZeNtuy" name="Page-1">
    <mxGraphModel dx="2878" dy="1242" grid="1" gridSize="10" guides="1" tooltips="1" connect="1" arrows="1" fold="1" page="1" pageScale="1" pageWidth="2336" pageHeight="1654" math="0" shadow="0">
      <root>
        <mxCell id="WIyWlLk6GJQsqaUBKTNV-0" />
        <mxCell id="WIyWlLk6GJQsqaUBKTNV-1" parent="WIyWlLk6GJQsqaUBKTNV-0" />
        <mxCell id="fcJVb3HREh7NScvAmxeq-0" value="" style="group" parent="WIyWlLk6GJQsqaUBKTNV-1" vertex="1" connectable="0">
          <mxGeometry x="40" y="40" width="490" height="220" as="geometry" />
        </mxCell>
        <mxCell id="fcJVb3HREh7NScvAmxeq-1" value="&lt;font color=&quot;#000000&quot; size=&quot;1&quot;&gt;&lt;b style=&quot;font-size: 14px&quot;&gt;Legend:&lt;br&gt;&lt;/b&gt;&lt;/font&gt;&lt;br&gt;&lt;br&gt;&lt;br&gt;&lt;font color=&quot;#0000ff&quot; style=&quot;font-size: 6px&quot;&gt;&lt;br&gt;&lt;/font&gt;&lt;span style=&quot;color: rgb(0 , 0 , 0)&quot;&gt;&lt;font style=&quot;font-size: 4px&quot;&gt;&amp;nbsp; &amp;nbsp;&lt;/font&gt;&amp;nbsp;In progress&amp;nbsp; &amp;nbsp; &amp;nbsp; &amp;nbsp; &amp;nbsp; &amp;nbsp; In validation&amp;nbsp; &amp;nbsp; &amp;nbsp; &amp;nbsp; &amp;nbsp; &amp;nbsp;Ready to use&lt;/span&gt;&lt;font color=&quot;#000000&quot;&gt;&amp;nbsp;&lt;br&gt;&lt;/font&gt;&lt;font color=&quot;#0000ff&quot;&gt;&lt;br&gt;&lt;br&gt;&lt;br&gt;&lt;br&gt;&amp;nbsp;attribute / method()&amp;nbsp; &amp;nbsp; &amp;nbsp; &amp;nbsp; New public attribute/method to be implemented&lt;/font&gt;&lt;br&gt;&lt;font color=&quot;#000000&quot;&gt;&amp;nbsp;&lt;/font&gt;&lt;font color=&quot;#000000&quot;&gt;attribute / method()&lt;span&gt;&#x9;&lt;/span&gt;&amp;nbsp; &amp;nbsp; &amp;nbsp; &amp;nbsp;New/inherited public attribute/method that is implemented here&lt;br&gt;&lt;/font&gt;&lt;font color=&quot;#0000ff&quot;&gt;&amp;nbsp;_attribute /&amp;nbsp;&lt;/font&gt;&lt;font color=&quot;#0000ff&quot;&gt;_method()&amp;nbsp; &amp;nbsp; New protected method/attribute to be implemented&lt;/font&gt;&lt;br&gt;&lt;font color=&quot;#000000&quot;&gt;&amp;nbsp;_attribute / _method()&amp;nbsp; &amp;nbsp; New/inherited protected attribute/method that is implemented here&lt;br&gt;&lt;/font&gt;&lt;font color=&quot;#000000&quot;&gt;&lt;br&gt;&lt;br&gt;&lt;br&gt;&lt;br&gt;&lt;br&gt;&lt;/font&gt;" style="text;html=1;align=left;verticalAlign=top;whiteSpace=wrap;rounded=0;fontColor=#006600;strokeColor=#000000;shadow=1;fillColor=#ffffff;" parent="fcJVb3HREh7NScvAmxeq-0" vertex="1">
          <mxGeometry width="489.99999999999994" height="220" as="geometry" />
        </mxCell>
        <mxCell id="fcJVb3HREh7NScvAmxeq-2" value="Depends on" style="endArrow=block;html=1;labelPosition=right;verticalLabelPosition=middle;align=left;verticalAlign=middle;endFill=1;fontSize=12;" parent="fcJVb3HREh7NScvAmxeq-0" edge="1">
          <mxGeometry x="-1623.1249999999998" y="-2180" width="51.041666666666664" height="50" as="geometry">
            <mxPoint x="10.20802398989899" y="120.00301587301601" as="sourcePoint" />
            <mxPoint x="55.990852272727174" y="120.00301587301601" as="targetPoint" />
            <mxPoint x="98" as="offset" />
            <Array as="points">
              <mxPoint x="30.624999999999996" y="120" />
            </Array>
          </mxGeometry>
        </mxCell>
        <mxCell id="fcJVb3HREh7NScvAmxeq-3" value="Inherits from" style="endArrow=block;html=1;labelPosition=right;verticalLabelPosition=middle;align=left;verticalAlign=middle;endFill=0;fontSize=12;" parent="fcJVb3HREh7NScvAmxeq-0" edge="1">
          <mxGeometry x="-1623.1249999999998" y="-2180" width="51.041666666666664" height="50" as="geometry">
            <mxPoint x="10.20802398989899" y="132.3846031746034" as="sourcePoint" />
            <mxPoint x="55.990852272727174" y="132.3846031746034" as="targetPoint" />
            <mxPoint x="98" y="1" as="offset" />
          </mxGeometry>
        </mxCell>
        <mxCell id="fcJVb3HREh7NScvAmxeq-4" value="" style="swimlane;fontStyle=3;align=center;verticalAlign=top;childLayout=stackLayout;horizontal=1;startSize=26;horizontalStack=0;resizeParent=1;resizeLast=0;collapsible=1;marginBottom=0;rounded=0;shadow=1;strokeWidth=1;fillColor=#f8cecc;strokeColor=#b85450;gradientColor=#ffffff;swimlaneFillColor=#ffffff;" parent="fcJVb3HREh7NScvAmxeq-0" vertex="1">
          <mxGeometry x="10.208333333333332" y="40" width="40.83333333333333" height="34" as="geometry">
            <mxRectangle x="230" y="140" width="160" height="26" as="alternateBounds" />
          </mxGeometry>
        </mxCell>
        <mxCell id="fcJVb3HREh7NScvAmxeq-5" value="" style="line;html=1;strokeWidth=1;align=left;verticalAlign=middle;spacingTop=-1;spacingLeft=3;spacingRight=3;rotatable=0;labelPosition=right;points=[];portConstraint=eastwest;" parent="fcJVb3HREh7NScvAmxeq-4" vertex="1">
          <mxGeometry y="26" width="40.83333333333333" height="8" as="geometry" />
        </mxCell>
        <mxCell id="fcJVb3HREh7NScvAmxeq-6" value="" style="swimlane;fontStyle=3;align=center;verticalAlign=top;childLayout=stackLayout;horizontal=1;startSize=26;horizontalStack=0;resizeParent=1;resizeLast=0;collapsible=1;marginBottom=0;rounded=0;shadow=1;strokeWidth=1;fillColor=#fff2cc;strokeColor=#d6b656;gradientColor=#ffffff;swimlaneFillColor=#ffffff;" parent="fcJVb3HREh7NScvAmxeq-0" vertex="1">
          <mxGeometry x="112.29166666666666" y="40" width="40.83333333333333" height="34" as="geometry">
            <mxRectangle x="230" y="140" width="160" height="26" as="alternateBounds" />
          </mxGeometry>
        </mxCell>
        <mxCell id="fcJVb3HREh7NScvAmxeq-7" value="" style="line;html=1;strokeWidth=1;align=left;verticalAlign=middle;spacingTop=-1;spacingLeft=3;spacingRight=3;rotatable=0;labelPosition=right;points=[];portConstraint=eastwest;" parent="fcJVb3HREh7NScvAmxeq-6" vertex="1">
          <mxGeometry y="26" width="40.83333333333333" height="8" as="geometry" />
        </mxCell>
        <mxCell id="fcJVb3HREh7NScvAmxeq-8" value="" style="swimlane;fontStyle=3;align=center;verticalAlign=top;childLayout=stackLayout;horizontal=1;startSize=26;horizontalStack=0;resizeParent=1;resizeLast=0;collapsible=1;marginBottom=0;rounded=0;shadow=1;strokeWidth=1;fillColor=#dae8fc;strokeColor=#6c8ebf;gradientColor=#ffffff;swimlaneFillColor=#ffffff;" parent="fcJVb3HREh7NScvAmxeq-0" vertex="1">
          <mxGeometry x="214.37499999999997" y="40" width="40.83333333333333" height="34" as="geometry">
            <mxRectangle x="230" y="140" width="160" height="26" as="alternateBounds" />
          </mxGeometry>
        </mxCell>
        <mxCell id="fcJVb3HREh7NScvAmxeq-9" value="" style="line;html=1;strokeWidth=1;align=left;verticalAlign=middle;spacingTop=-1;spacingLeft=3;spacingRight=3;rotatable=0;labelPosition=right;points=[];portConstraint=eastwest;" parent="fcJVb3HREh7NScvAmxeq-8" vertex="1">
          <mxGeometry y="26" width="40.83333333333333" height="8" as="geometry" />
        </mxCell>
        <mxCell id="djkSZsYrqMZZcw2voRnb-0" value="BoundaryDetector &#xa;(OAStreamTask, &#xa;bf.math.statistics.BoundaryProvider)" style="swimlane;fontStyle=3;align=center;verticalAlign=top;childLayout=stackLayout;horizontal=1;startSize=52;horizontalStack=0;resizeParent=1;resizeLast=0;collapsible=1;marginBottom=0;rounded=0;shadow=1;strokeWidth=1;fillColor=#dae8fc;strokeColor=#6c8ebf;swimlaneFillColor=#ffffff;gradientColor=#FFFFFF;fontColor=default;" parent="WIyWlLk6GJQsqaUBKTNV-1" vertex="1">
          <mxGeometry x="290" y="380" width="300" height="760" as="geometry">
            <mxRectangle x="230" y="140" width="160" height="26" as="alternateBounds" />
          </mxGeometry>
        </mxCell>
        <mxCell id="djkSZsYrqMZZcw2voRnb-2" value="C_NAME = &#39;Boundary Detector&#39;" style="text;align=left;verticalAlign=top;spacingLeft=4;spacingRight=4;overflow=hidden;rotatable=0;points=[[0,0.5],[1,0.5]];portConstraint=eastwest;fontColor=default;" parent="djkSZsYrqMZZcw2voRnb-0" vertex="1">
          <mxGeometry y="52" width="300" height="26" as="geometry" />
        </mxCell>
        <mxCell id="E22JauP8QSBELQUjzo3H-0" value="C_PLOT_ND_XLABEL_FEATURE = &#39;Feature&#39;" style="text;align=left;verticalAlign=top;spacingLeft=4;spacingRight=4;overflow=hidden;rotatable=0;points=[[0,0.5],[1,0.5]];portConstraint=eastwest;fontColor=default;" vertex="1" parent="djkSZsYrqMZZcw2voRnb-0">
          <mxGeometry y="78" width="300" height="30" as="geometry" />
        </mxCell>
        <mxCell id="E22JauP8QSBELQUjzo3H-1" value="C_PLOT_ND_YLABEL = &#39;Boundaries&#39;" style="text;align=left;verticalAlign=top;spacingLeft=4;spacingRight=4;overflow=hidden;rotatable=0;points=[[0,0.5],[1,0.5]];portConstraint=eastwest;fontColor=default;" vertex="1" parent="djkSZsYrqMZZcw2voRnb-0">
          <mxGeometry y="108" width="300" height="30" as="geometry" />
        </mxCell>
        <mxCell id="NiR23lWWdtpF8f0qRRbo-22" value="C_PLOT_STANDALONE = True" style="text;align=left;verticalAlign=top;spacingLeft=4;spacingRight=4;overflow=hidden;rotatable=0;points=[[0,0.5],[1,0.5]];portConstraint=eastwest;fontColor=default;" parent="djkSZsYrqMZZcw2voRnb-0" vertex="1">
          <mxGeometry y="138" width="300" height="30" as="geometry" />
        </mxCell>
        <mxCell id="NiR23lWWdtpF8f0qRRbo-23" value="C_PLOT_VALID_VIEWS = [ C_PLOT_VIEW_2D,&#xa;                                              C_PLOT_VIEW_3D,&#xa;                                              C_PLOT_VIEW_ND ]" style="text;align=left;verticalAlign=top;spacingLeft=4;spacingRight=4;overflow=hidden;rotatable=0;points=[[0,0.5],[1,0.5]];portConstraint=eastwest;fontColor=default;" parent="djkSZsYrqMZZcw2voRnb-0" vertex="1">
          <mxGeometry y="168" width="300" height="52" as="geometry" />
        </mxCell>
        <mxCell id="NiR23lWWdtpF8f0qRRbo-24" value="C_PLOT_DEFAULT_VIEW = C_PLOT_VIEW_ND" style="text;align=left;verticalAlign=top;spacingLeft=4;spacingRight=4;overflow=hidden;rotatable=0;points=[[0,0.5],[1,0.5]];portConstraint=eastwest;fontColor=default;" parent="djkSZsYrqMZZcw2voRnb-0" vertex="1">
          <mxGeometry y="220" width="300" height="30" as="geometry" />
        </mxCell>
        <mxCell id="sRcf4HLc-okugMhp_nmm-1" value="_related_set : Set" style="text;align=left;verticalAlign=top;spacingLeft=4;spacingRight=4;overflow=hidden;rotatable=0;points=[[0,0.5],[1,0.5]];portConstraint=eastwest;fontColor=default;" parent="djkSZsYrqMZZcw2voRnb-0" vertex="1">
          <mxGeometry y="250" width="300" height="27" as="geometry" />
        </mxCell>
        <mxCell id="E22JauP8QSBELQUjzo3H-7" value="_boundary_provider : BoundaryProvider" style="text;align=left;verticalAlign=top;spacingLeft=4;spacingRight=4;overflow=hidden;rotatable=0;points=[[0,0.5],[1,0.5]];portConstraint=eastwest;fontColor=default;" vertex="1" parent="djkSZsYrqMZZcw2voRnb-0">
          <mxGeometry y="277" width="300" height="27" as="geometry" />
        </mxCell>
        <mxCell id="E22JauP8QSBELQUjzo3H-8" value="_boundaries : Boundaries" style="text;align=left;verticalAlign=top;spacingLeft=4;spacingRight=4;overflow=hidden;rotatable=0;points=[[0,0.5],[1,0.5]];portConstraint=eastwest;fontColor=default;" vertex="1" parent="djkSZsYrqMZZcw2voRnb-0">
          <mxGeometry y="304" width="300" height="27" as="geometry" />
        </mxCell>
        <mxCell id="E22JauP8QSBELQUjzo3H-9" value="_boundaries_reduce : np.ndarray" style="text;align=left;verticalAlign=top;spacingLeft=4;spacingRight=4;overflow=hidden;rotatable=0;points=[[0,0.5],[1,0.5]];portConstraint=eastwest;fontColor=default;" vertex="1" parent="djkSZsYrqMZZcw2voRnb-0">
          <mxGeometry y="331" width="300" height="27" as="geometry" />
        </mxCell>
        <mxCell id="djkSZsYrqMZZcw2voRnb-3" value="" style="line;html=1;strokeWidth=1;align=left;verticalAlign=middle;spacingTop=-1;spacingLeft=3;spacingRight=3;rotatable=0;labelPosition=right;points=[];portConstraint=eastwest;" parent="djkSZsYrqMZZcw2voRnb-0" vertex="1">
          <mxGeometry y="358" width="300" height="8" as="geometry" />
        </mxCell>
        <mxCell id="Zge928UNn11OPt7wxuU9-2" value="__init__( p_name : str = None,&#xa;    p_range_max=MLTask.C_RANGE_THREAD,&#xa;    p_ada : bool = True,&#xa;    p_visualize : bool = False,&#xa;    p_logging = Log.C_LOG_ALL,&#xa;    p_boundary_provider:BoundaryProvider=None,&#xa;    **p_kwargs )" style="text;align=left;verticalAlign=top;spacingLeft=4;spacingRight=4;overflow=hidden;rotatable=0;points=[[0,0.5],[1,0.5]];portConstraint=eastwest;fontColor=default;fontStyle=1" parent="djkSZsYrqMZZcw2voRnb-0" vertex="1">
          <mxGeometry y="366" width="300" height="110" as="geometry" />
        </mxCell>
        <mxCell id="k9iU4n4au0y_1ybiQBL--3" value="_run( p_instances : InstDict )" style="text;align=left;verticalAlign=top;spacingLeft=4;spacingRight=4;overflow=hidden;rotatable=0;points=[[0,0.5],[1,0.5]];portConstraint=eastwest;fontColor=default;" parent="djkSZsYrqMZZcw2voRnb-0" vertex="1">
          <mxGeometry y="476" width="300" height="27" as="geometry" />
        </mxCell>
        <mxCell id="E22JauP8QSBELQUjzo3H-2" value="_init_data_structures( p_instance : Instance )" style="text;align=left;verticalAlign=top;spacingLeft=4;spacingRight=4;overflow=hidden;rotatable=0;points=[[0,0.5],[1,0.5]];portConstraint=eastwest;fontColor=default;" vertex="1" parent="djkSZsYrqMZZcw2voRnb-0">
          <mxGeometry y="503" width="300" height="27" as="geometry" />
        </mxCell>
        <mxCell id="k9iU4n4au0y_1ybiQBL--4" value="_adapt( p_instance_new : Instance ) -&gt; bool" style="text;align=left;verticalAlign=top;spacingLeft=4;spacingRight=4;overflow=hidden;rotatable=0;points=[[0,0.5],[1,0.5]];portConstraint=eastwest;fontColor=default;" parent="djkSZsYrqMZZcw2voRnb-0" vertex="1">
          <mxGeometry y="530" width="300" height="26" as="geometry" />
        </mxCell>
        <mxCell id="E22JauP8QSBELQUjzo3H-3" value="_adapt_reverse( p_instance_del: Instance ) -&gt; bool" style="text;align=left;verticalAlign=top;spacingLeft=4;spacingRight=4;overflow=hidden;rotatable=0;points=[[0,0.5],[1,0.5]];portConstraint=eastwest;fontColor=default;" vertex="1" parent="djkSZsYrqMZZcw2voRnb-0">
          <mxGeometry y="556" width="300" height="26" as="geometry" />
        </mxCell>
        <mxCell id="E22JauP8QSBELQUjzo3H-4" value="_adapt_post() -&gt; OAStreamAdaptationType" style="text;align=left;verticalAlign=top;spacingLeft=4;spacingRight=4;overflow=hidden;rotatable=0;points=[[0,0.5],[1,0.5]];portConstraint=eastwest;fontColor=default;" vertex="1" parent="djkSZsYrqMZZcw2voRnb-0">
          <mxGeometry y="582" width="300" height="26" as="geometry" />
        </mxCell>
        <mxCell id="sRcf4HLc-okugMhp_nmm-0" value="get_boundaries( p_dim : int = None, &#xa;     p_side : int = None, &#xa;     p_copy:bool=False ) -&gt; Union[Boundaries,float]" style="text;align=left;verticalAlign=top;spacingLeft=4;spacingRight=4;overflow=hidden;rotatable=0;points=[[0,0.5],[1,0.5]];portConstraint=eastwest;fontColor=default;fontStyle=1" parent="djkSZsYrqMZZcw2voRnb-0" vertex="1">
          <mxGeometry y="608" width="300" height="57" as="geometry" />
        </mxCell>
        <mxCell id="NiR23lWWdtpF8f0qRRbo-27" value="_init_plot_nd( p_figure : Figure, &#xa;                       p_settings : PlotSettings )" style="text;align=left;verticalAlign=top;spacingLeft=4;spacingRight=4;overflow=hidden;rotatable=0;points=[[0,0.5],[1,0.5]];portConstraint=eastwest;fontColor=default;" parent="djkSZsYrqMZZcw2voRnb-0" vertex="1">
          <mxGeometry y="665" width="300" height="40" as="geometry" />
        </mxCell>
        <mxCell id="RV1RuwSu5WSXBUyNZDB--9" value="_update_plot_nd( p_settings : PlotSettings,&#xa;                             p_instances : InstDict,&#xa;                             **p_kwargs )" style="text;align=left;verticalAlign=top;spacingLeft=4;spacingRight=4;overflow=hidden;rotatable=0;points=[[0,0.5],[1,0.5]];portConstraint=eastwest;fontColor=default;" parent="djkSZsYrqMZZcw2voRnb-0" vertex="1">
          <mxGeometry y="705" width="300" height="54" as="geometry" />
        </mxCell>
        <mxCell id="F4cRb40SIBlKEnmwUcSt-0" value="NormalizerZTrans &#xa;(OAStreamTask, bf.math.NormalizerZTrans)" style="swimlane;fontStyle=3;align=center;verticalAlign=top;childLayout=stackLayout;horizontal=1;startSize=40;horizontalStack=0;resizeParent=1;resizeLast=0;collapsible=1;marginBottom=0;rounded=0;shadow=1;strokeWidth=1;fillColor=#fff2cc;strokeColor=#d6b656;swimlaneFillColor=#ffffff;gradientColor=#FFFFFF;" parent="WIyWlLk6GJQsqaUBKTNV-1" vertex="1">
          <mxGeometry x="710" y="754" width="300" height="386" as="geometry">
            <mxRectangle x="230" y="140" width="160" height="26" as="alternateBounds" />
          </mxGeometry>
        </mxCell>
        <mxCell id="F4cRb40SIBlKEnmwUcSt-1" value="C_NAME = &#39;Normalizer ZTrans&#39;" style="text;align=left;verticalAlign=top;spacingLeft=4;spacingRight=4;overflow=hidden;rotatable=0;points=[[0,0.5],[1,0.5]];portConstraint=eastwest;fontColor=default;" parent="F4cRb40SIBlKEnmwUcSt-0" vertex="1">
          <mxGeometry y="40" width="300" height="26" as="geometry" />
        </mxCell>
        <mxCell id="F4cRb40SIBlKEnmwUcSt-2" value="" style="line;html=1;strokeWidth=1;align=left;verticalAlign=middle;spacingTop=-1;spacingLeft=3;spacingRight=3;rotatable=0;labelPosition=right;points=[];portConstraint=eastwest;" parent="F4cRb40SIBlKEnmwUcSt-0" vertex="1">
          <mxGeometry y="66" width="300" height="8" as="geometry" />
        </mxCell>
        <mxCell id="E22JauP8QSBELQUjzo3H-6" value="_run( p_instances : InstDict )" style="text;align=left;verticalAlign=top;spacingLeft=4;spacingRight=4;overflow=hidden;rotatable=0;points=[[0,0.5],[1,0.5]];portConstraint=eastwest;fontColor=default;" vertex="1" parent="F4cRb40SIBlKEnmwUcSt-0">
          <mxGeometry y="74" width="300" height="27" as="geometry" />
        </mxCell>
        <mxCell id="yrxN6NsfpMFZywsGCdLo-1" value="_adapt( p_inst_new : list[Instance] ) -&gt; bool" style="text;align=left;verticalAlign=top;spacingLeft=4;spacingRight=4;overflow=hidden;rotatable=0;points=[[0,0.5],[1,0.5]];portConstraint=eastwest;fontColor=default;" parent="F4cRb40SIBlKEnmwUcSt-0" vertex="1">
          <mxGeometry y="101" width="300" height="26" as="geometry" />
        </mxCell>
        <mxCell id="yrxN6NsfpMFZywsGCdLo-2" value="_adapt_reverse( p_inst_del:list[Instance] ) -&gt; bool" style="text;align=left;verticalAlign=top;spacingLeft=4;spacingRight=4;overflow=hidden;rotatable=0;points=[[0,0.5],[1,0.5]];portConstraint=eastwest;fontColor=default;" parent="F4cRb40SIBlKEnmwUcSt-0" vertex="1">
          <mxGeometry y="127" width="300" height="26" as="geometry" />
        </mxCell>
        <mxCell id="qxkyLZIyBA5QRMeZb8ZX-4" value="_update_plot_2d( p_settings : PlotSettings,&#xa;                             p_inst:new : list,&#xa;                             p_inst_del : list,&#xa;                             **p_kwargs )" style="text;align=left;verticalAlign=top;spacingLeft=4;spacingRight=4;overflow=hidden;rotatable=0;points=[[0,0.5],[1,0.5]];portConstraint=eastwest;fontColor=default;" parent="F4cRb40SIBlKEnmwUcSt-0" vertex="1">
          <mxGeometry y="153" width="300" height="69" as="geometry" />
        </mxCell>
        <mxCell id="qxkyLZIyBA5QRMeZb8ZX-5" value="_update_plot_3d( p_settings : PlotSettings,&#xa;                             p_inst:new : list,&#xa;                             p_inst_del : list,&#xa;                             **p_kwargs )" style="text;align=left;verticalAlign=top;spacingLeft=4;spacingRight=4;overflow=hidden;rotatable=0;points=[[0,0.5],[1,0.5]];portConstraint=eastwest;fontColor=default;" parent="F4cRb40SIBlKEnmwUcSt-0" vertex="1">
          <mxGeometry y="222" width="300" height="69" as="geometry" />
        </mxCell>
        <mxCell id="qxkyLZIyBA5QRMeZb8ZX-6" value="_update_plot_nd( p_settings : PlotSettings,&#xa;                             p_inst:new : list,&#xa;                             p_inst_del : list,&#xa;                             **p_kwargs )" style="text;align=left;verticalAlign=top;spacingLeft=4;spacingRight=4;overflow=hidden;rotatable=0;points=[[0,0.5],[1,0.5]];portConstraint=eastwest;fontColor=default;" parent="F4cRb40SIBlKEnmwUcSt-0" vertex="1">
          <mxGeometry y="291" width="300" height="69" as="geometry" />
        </mxCell>
        <mxCell id="E04wLSxEPzHpS0Ez6FtS-0" value="NormalizerMinMax &#xa;(OAStreamTask, bf.math.NormalizerMinMax)" style="swimlane;fontStyle=3;align=center;verticalAlign=top;childLayout=stackLayout;horizontal=1;startSize=40;horizontalStack=0;resizeParent=1;resizeLast=0;collapsible=1;marginBottom=0;rounded=0;shadow=1;strokeWidth=1;fillColor=#f8cecc;strokeColor=#b85450;swimlaneFillColor=#ffffff;gradientColor=#FFFFFF;" parent="WIyWlLk6GJQsqaUBKTNV-1" vertex="1">
          <mxGeometry x="710" y="380" width="300" height="230" as="geometry">
            <mxRectangle x="230" y="140" width="160" height="26" as="alternateBounds" />
          </mxGeometry>
        </mxCell>
        <mxCell id="E04wLSxEPzHpS0Ez6FtS-1" value="C_NAME = &#39;Normalizer MinMax&#39;" style="text;align=left;verticalAlign=top;spacingLeft=4;spacingRight=4;overflow=hidden;rotatable=0;points=[[0,0.5],[1,0.5]];portConstraint=eastwest;fontColor=default;" parent="E04wLSxEPzHpS0Ez6FtS-0" vertex="1">
          <mxGeometry y="40" width="300" height="26" as="geometry" />
        </mxCell>
        <mxCell id="E04wLSxEPzHpS0Ez6FtS-2" value="" style="line;html=1;strokeWidth=1;align=left;verticalAlign=middle;spacingTop=-1;spacingLeft=3;spacingRight=3;rotatable=0;labelPosition=right;points=[];portConstraint=eastwest;" parent="E04wLSxEPzHpS0Ez6FtS-0" vertex="1">
          <mxGeometry y="66" width="300" height="8" as="geometry" />
        </mxCell>
        <mxCell id="E22JauP8QSBELQUjzo3H-5" value="_run( p_instances : InstDict )" style="text;align=left;verticalAlign=top;spacingLeft=4;spacingRight=4;overflow=hidden;rotatable=0;points=[[0,0.5],[1,0.5]];portConstraint=eastwest;fontColor=default;" vertex="1" parent="E04wLSxEPzHpS0Ez6FtS-0">
          <mxGeometry y="74" width="300" height="27" as="geometry" />
        </mxCell>
        <mxCell id="SvLOUBWT1tryLjYvP5bG-8" value="_adapt_on_event ( p_event_id : str, &#xa;                               p_event_object : Event ) -&gt; bool" style="text;align=left;verticalAlign=top;spacingLeft=4;spacingRight=4;overflow=hidden;rotatable=0;points=[[0,0.5],[1,0.5]];portConstraint=eastwest;fontColor=default;" parent="E04wLSxEPzHpS0Ez6FtS-0" vertex="1">
          <mxGeometry y="101" width="300" height="39" as="geometry" />
        </mxCell>
        <mxCell id="E22JauP8QSBELQUjzo3H-10" value="_update_plot_data_2d()" style="text;align=left;verticalAlign=top;spacingLeft=4;spacingRight=4;overflow=hidden;rotatable=0;points=[[0,0.5],[1,0.5]];portConstraint=eastwest;fontColor=default;" vertex="1" parent="E04wLSxEPzHpS0Ez6FtS-0">
          <mxGeometry y="140" width="300" height="27" as="geometry" />
        </mxCell>
        <mxCell id="E22JauP8QSBELQUjzo3H-11" value="_update_plot_data_3d()" style="text;align=left;verticalAlign=top;spacingLeft=4;spacingRight=4;overflow=hidden;rotatable=0;points=[[0,0.5],[1,0.5]];portConstraint=eastwest;fontColor=default;" vertex="1" parent="E04wLSxEPzHpS0Ez6FtS-0">
          <mxGeometry y="167" width="300" height="27" as="geometry" />
        </mxCell>
        <mxCell id="E22JauP8QSBELQUjzo3H-12" value="_update_plot_data_nd()" style="text;align=left;verticalAlign=top;spacingLeft=4;spacingRight=4;overflow=hidden;rotatable=0;points=[[0,0.5],[1,0.5]];portConstraint=eastwest;fontColor=default;" vertex="1" parent="E04wLSxEPzHpS0Ez6FtS-0">
          <mxGeometry y="194" width="300" height="27" as="geometry" />
        </mxCell>
        <mxCell id="MdppRDNMOQBX0Ns-GjJF-0" style="edgeStyle=orthogonalEdgeStyle;rounded=0;orthogonalLoop=1;jettySize=auto;html=1;endArrow=block;endFill=1;" parent="WIyWlLk6GJQsqaUBKTNV-1" source="E04wLSxEPzHpS0Ez6FtS-0" target="djkSZsYrqMZZcw2voRnb-0" edge="1">
          <mxGeometry relative="1" as="geometry">
            <mxPoint x="710" y="635.5" as="sourcePoint" />
          </mxGeometry>
        </mxCell>
      </root>
    </mxGraphModel>
  </diagram>
</mxfile>
